<?xml version="1.0" standalone="no"?><svg xmlns="http://www.w3.org/2000/svg" viewBox="0 0 1440 320"><path fill="#e07c24" fill-opacity="1" d="M0,32L20,26.7C40,21,80,11,120,16C160,21,200,43,240,69.3C280,96,320,128,360,117.3C400,107,440,53,480,37.3C520,21,560,43,600,58.7C640,75,680,85,720,85.3C760,85,800,75,840,96C880,117,920,171,960,165.3C1000,160,1040,96,1080,64C1120,32,1160,32,1200,74.7C1240,117,1280,203,1320,224C1360,245,1400,203,1420,181.3L1440,160L1440,0L1420,0C1400,0,1360,0,1320,0C1280,0,1240,0,1200,0C1160,0,1120,0,1080,0C1040,0,1000,0,960,0C920,0,880,0,840,0C800,0,760,0,720,0C680,0,640,0,600,0C560,0,520,0,480,0C440,0,400,0,360,0C320,0,280,0,240,0C200,0,160,0,120,0C80,0,40,0,20,0L0,0Z"></path></svg>