<?xml version="1.0" standalone="no"?><svg xmlns="http://www.w3.org/2000/svg" viewBox="0 0 1440 320"><path fill="#e07c24" fill-opacity="1" d="M0,160L24,154.7C48,149,96,139,144,133.3C192,128,240,128,288,160C336,192,384,256,432,256C480,256,528,192,576,170.7C624,149,672,171,720,186.7C768,203,816,213,864,192C912,171,960,117,1008,117.3C1056,117,1104,171,1152,165.3C1200,160,1248,96,1296,85.3C1344,75,1392,117,1416,138.7L1440,160L1440,320L1416,320C1392,320,1344,320,1296,320C1248,320,1200,320,1152,320C1104,320,1056,320,1008,320C960,320,912,320,864,320C816,320,768,320,720,320C672,320,624,320,576,320C528,320,480,320,432,320C384,320,336,320,288,320C240,320,192,320,144,320C96,320,48,320,24,320L0,320Z"></path></svg>