<?xml version="1.0" standalone="no"?><svg xmlns="http://www.w3.org/2000/svg" viewBox="0 0 1440 320"><path fill="#f7cd2e" fill-opacity="1" d="M0,64L21.8,80C43.6,96,87,128,131,165.3C174.5,203,218,245,262,240C305.5,235,349,181,393,170.7C436.4,160,480,192,524,192C567.3,192,611,160,655,165.3C698.2,171,742,213,785,234.7C829.1,256,873,256,916,218.7C960,181,1004,107,1047,96C1090.9,85,1135,139,1178,144C1221.8,149,1265,107,1309,96C1352.7,85,1396,107,1418,117.3L1440,128L1440,320L1418.2,320C1396.4,320,1353,320,1309,320C1265.5,320,1222,320,1178,320C1134.5,320,1091,320,1047,320C1003.6,320,960,320,916,320C872.7,320,829,320,785,320C741.8,320,698,320,655,320C610.9,320,567,320,524,320C480,320,436,320,393,320C349.1,320,305,320,262,320C218.2,320,175,320,131,320C87.3,320,44,320,22,320L0,320Z"></path></svg>